<?xml version="1.0" encoding="utf-8"?>
<!-- Generator: Adobe Illustrator 23.0.5, SVG Export Plug-In . SVG Version: 6.00 Build 0)  -->
<svg version="1.1" id="Layer_1" xmlns="http://www.w3.org/2000/svg" xmlns:xlink="http://www.w3.org/1999/xlink" x="0px" y="0px"
	 viewBox="0 0 43 40" style="enable-background:new 0 0 43 40;" xml:space="preserve">
<style type="text/css">
	.st0{fill:#FBB040;}
</style>
<g>
	<g>
		<path class="st0" d="M12.9,5.6c0,0,0.1,0,0.1,0c0.3-0.1,0.6-0.2,1-0.3c0.4-0.2,0.8-0.3,1.2-0.5c0.5-0.3,1.1-0.5,1.6-0.8
			c0.6-0.4,1.2-0.8,1.7-1.2c0.6-0.4,1.1-0.9,1.7-1.3c0.3-0.2,0.7-0.4,1.1-0.5c0.6-0.2,1.2-0.2,1.8-0.2c0.4,0,0.8,0.1,1.2,0.2
			c0.4,0.1,0.7,0.3,1.1,0.5c0.7,0.4,1.3,0.9,1.9,1.5c0.4,0.5,0.8,1,1,1.6c0.1,0.4,0.2,0.8,0.3,1.2c0.2-0.1,0.5-0.3,0.8-0.4
			c0.2-0.1,0.4-0.1,0.6-0.1c0.4,0,0.7,0,1.1,0c0.4,0.1,0.7,0.2,1,0.3c0.4,0.1,0.8,0.3,1.1,0.6C33.6,6.6,34,7,34.3,7.6
			c0.1,0.3,0.3,0.6,0.4,0.9c0.1,0.2,0.1,0.4,0.1,0.7c0,0.4,0,0.9,0,1.3c0,0.3-0.1,0.5-0.1,0.8c-0.1,0.3-0.1,0.6-0.2,0.8
			c-0.2,0.5-0.4,1-0.7,1.4c-0.3,0.5-0.6,0.9-1.1,1.2c-0.2,0.2-0.5,0.3-0.7,0.4c-0.3,0.1-0.6,0.2-0.9,0.3c-0.2,0.1-0.4,0.1-0.6,0.1
			c-0.5,0-1.1,0-1.6,0c-0.3,0-0.6-0.1-1-0.2c0.1,1,0.2,1.9,0.7,2.7c0,0,0,0,0,0c-0.1-0.1-0.2-0.2-0.3-0.3c-0.5-0.6-0.8-1.4-1-2.2
			c-0.1-0.3-0.2-0.5-0.5-0.7c-0.4-0.2-0.8-0.3-1.2-0.5c-0.6-0.2-1.1-0.4-1.7-0.7c-0.6-0.2-1.2-0.5-1.9-0.6c-0.1,0-0.3,0-0.4,0
			c-0.4,0-0.8-0.1-1.3-0.1c-0.5,0-1,0.1-1.6,0.2c-0.3,0-0.7,0.1-1,0.1c-0.3,0.1-0.6,0.1-0.8,0.2c-0.3,0.1-0.5,0.1-0.7,0.2
			c-0.4,0.2-0.7,0.5-0.9,0.9c-0.1,0.2-0.1,0.5-0.2,0.7c0,0.1-0.1,0.2-0.2,0.3c-0.1,0.6-0.2,1.2-0.4,1.8c-0.1,0.6-0.3,1.1-0.6,1.6
			c-0.2,0.3-0.3,0.6-0.5,0.8c0,0.1-0.1,0.1-0.1,0.2c0,0,0,0-0.1-0.1c0.1-0.2,0.1-0.3,0.2-0.5c0.3-0.8,0.4-1.6,0.4-2.4
			c0-0.4,0-0.9,0-1.3c0-0.1,0-0.2-0.2-0.2c-0.4-0.1-0.9-0.1-1.3-0.2c-0.8-0.2-1.4-0.6-2-1.1c-0.6-0.5-1-1-1.4-1.6
			c-0.2-0.3-0.3-0.7-0.5-1c-0.1-0.4-0.2-0.7-0.3-1.1c-0.1-0.6,0-1.2-0.1-1.8c0-0.5,0.1-1,0.3-1.5C8.7,6.7,9.1,6,9.7,5.4
			c0.4-0.3,0.7-0.6,1.2-0.8c0.3-0.1,0.6-0.3,1-0.4c0.3-0.1,0.7-0.2,1-0.3c0.3-0.1,0.5-0.1,0.8-0.2c0.2-0.1,0.5-0.1,0.7-0.2
			c0.2,0,0.3-0.1,0.5-0.1c0.3-0.1,0.6-0.1,0.9-0.3c0.5-0.2,0.9-0.4,1.3-0.6c0.2-0.1,0.4-0.3,0.6-0.4c0,0,0.1,0,0.2-0.1
			c-0.1,0.3-0.3,0.5-0.6,0.7c-0.3,0.3-0.7,0.6-1.1,0.8C16,3.8,15.7,3.9,15.4,4c-0.2,0.1-0.5,0.2-0.7,0.3c-0.2,0.1-0.4,0.1-0.6,0.2
			c-0.2,0.1-0.4,0.1-0.6,0.2c-0.2,0.1-0.4,0.1-0.5,0.1c-0.2,0.1-0.4,0.1-0.6,0.1C12.2,5,12,5.1,11.8,5.2c-0.3,0.1-0.5,0.3-0.8,0.4
			C10.4,6,10,6.4,9.7,6.9C9.4,7.3,9.3,7.8,9.2,8.2C9,8.8,8.9,9.4,9,10c0,0.4,0.1,0.8,0.3,1.1c0.2,0.6,0.5,1.1,1,1.6
			c0.4,0.4,0.8,0.8,1.3,1c0.6,0.3,1.2,0.4,1.9,0.3c0.4-0.1,0.8-0.3,1.1-0.6c0.4-0.4,0.4-0.4,0-0.7c-0.4-0.3-0.7-0.8-0.9-1.2
			c-0.2-0.4-0.3-0.7-0.5-1.1C13,10.2,13,9.9,12.9,9.6c0-0.1,0-0.1,0-0.2c0,0,0,0,0,0c0.1,0.1,0.2,0.3,0.3,0.4
			c0.4,0.7,0.9,1.4,1.6,1.9c0.3,0.3,0.7,0.5,1,0.6c0.5,0.2,0.9,0.3,1.4,0.3c0.6,0,1.2,0,1.8-0.1c0.3,0,0.6,0,0.9-0.1
			c0.4-0.1,0.7-0.3,0.9-0.6c0.3-0.4,0.5-0.8,0.5-1.2c0-0.2,0-0.3,0.1-0.5c0,0,0-0.1,0.1-0.1c0,0,0.1,0.1,0.1,0.1
			c0,0.2,0.1,0.3,0.1,0.5c0.1,0.4,0,0.9-0.1,1.3c0,0.1-0.1,0.2-0.1,0.4c0.2,0,0.4,0,0.6-0.1c0.3-0.1,0.6-0.2,0.9-0.4
			c0.5-0.3,0.9-0.8,1.2-1.3c0.2-0.4,0.4-0.9,0.5-1.3c0.1-0.4,0.1-0.9,0.1-1.4c0-0.1,0-0.2,0-0.3c0,0,0,0,0.1,0
			c0,0.2,0.1,0.4,0.1,0.6c0.1,0.6,0.2,1.2,0.1,1.9c0,0.4-0.2,0.7-0.3,1.1c-0.1,0.5-0.4,1-0.8,1.3c0,0-0.1,0.1-0.1,0.1
			c0,0,0,0-0.1,0.1c0.4,0,0.8,0.1,1.2,0.1c0.3,0,0.6-0.2,0.9-0.3c0.5-0.3,1-0.7,1.3-1.2c0.1-0.2,0.3-0.4,0.4-0.6c0,0,0,0,0.1-0.1
			c0,0.1,0.1,0.2,0.1,0.2c0,0.2-0.1,0.4-0.1,0.6c-0.1,0.4-0.3,0.9-0.6,1.2c-0.2,0.2-0.4,0.4-0.5,0.5c-0.1,0.1-0.1,0.1,0,0.2
			c0.3,0.2,0.7,0.4,1,0.6c0.3,0.1,0.6,0.2,0.9,0.3c0.3,0.1,0.7,0.1,1,0.1c0.4,0,0.8-0.1,1.2-0.2c0.9-0.3,1.6-0.8,2.1-1.5
			c0.3-0.4,0.6-0.9,0.8-1.4c0.3-0.7,0.3-1.4,0.2-2.1c-0.1-0.8-0.5-1.5-1.1-2c-0.3-0.2-0.6-0.4-0.9-0.5c-0.5-0.2-0.9-0.2-1.4-0.2
			c-0.3,0-0.5,0.1-0.8,0.2c-0.2,0.1-0.5,0.2-0.7,0.3c-0.7,0.3-1.3,0.7-1.7,1.4c0,0.1-0.1,0.1-0.2,0.2c0,0,0,0-0.1,0
			c0-0.1,0-0.2,0-0.2c0-0.2,0.1-0.4,0.1-0.5c0.1-0.3,0.2-0.6,0.4-1c0-0.1,0-0.1,0-0.2c-0.2-0.9-0.6-1.8-1.3-2.5
			c-0.3-0.3-0.7-0.6-1.1-0.8c-0.4-0.2-0.8-0.3-1.3-0.4c-0.3-0.1-0.7-0.1-1-0.1c-0.4,0-0.7,0.1-1.1,0.2c-0.3,0.1-0.6,0.2-0.8,0.3
			c-0.3,0.1-0.5,0.3-0.8,0.4c-0.3,0.1-0.5,0.3-0.8,0.4C19,4,18.8,4.2,18.5,4.3c-0.3,0.1-0.6,0.3-0.9,0.4c-0.2,0.1-0.5,0.2-0.8,0.3
			c-0.3,0.1-0.5,0.2-0.8,0.3c-0.2,0.1-0.5,0.1-0.7,0.2c-0.2,0-0.4,0.1-0.6,0.1c-0.5,0.1-1.1,0.1-1.6,0.1C13,5.8,12.9,5.7,12.9,5.6
			C12.9,5.7,12.9,5.7,12.9,5.6z"/>
		<path class="st0" d="M20.1,25.1c-0.4,0-0.9-0.1-1.3-0.1c-0.2,0-0.2-0.1-0.2-0.2c0-0.3-0.1-0.6-0.1-0.8c0-0.1-0.1-0.1-0.2-0.1
			c-0.5,0-1,0-1.6,0c-0.2,0-0.5,0-0.7,0c-0.1,0-0.2,0.1-0.3,0.2c-0.1,0.3-0.2,0.5-0.2,0.8c0,0.2-0.2,0.2-0.3,0.2c-0.6,0-1.2,0-1.8,0
			c-0.2,0-0.2-0.1-0.2-0.3c0.3-0.8,0.5-1.5,0.8-2.3c0.3-1,0.7-2.1,1-3.1c0.3-1,0.6-1.9,0.9-2.9c0.1-0.2,0.1-0.4,0.2-0.5
			c0.1-0.2,0.2-0.3,0.5-0.3c0.3,0,0.6,0,0.8,0c0.4,0,0.8,0,1.2,0c0.4,0,0.7,0.2,0.8,0.7c0.1,0.4,0.2,0.8,0.2,1.3
			c0.1,0.4,0.1,0.9,0.2,1.4c0.1,0.3,0.1,0.6,0.2,0.9c0.1,0.3,0.1,0.6,0.2,1c0.1,0.3,0.1,0.7,0.2,1c0.1,0.3,0.1,0.6,0.2,0.9
			c0.1,0.3,0.1,0.6,0.2,0.9c0.1,0.3,0.1,0.7,0.2,1c0,0.1,0,0.2,0.1,0.4c0,0.1,0,0.2-0.2,0.2C20.5,25,20.3,25,20.1,25.1
			C20.1,25.1,20.1,25.1,20.1,25.1z M17.5,18.5C17.5,18.5,17.5,18.5,17.5,18.5C17.5,18.5,17.4,18.5,17.5,18.5
			c-0.3,0.7-0.4,1.2-0.6,1.8c-0.1,0.5-0.3,0.9-0.4,1.4c0,0.1,0,0.2,0.1,0.2c0.4,0,0.8,0,1.2,0c0.2,0,0.2,0,0.2-0.2
			c0-0.3-0.1-0.7-0.2-1c-0.1-0.6-0.2-1.2-0.3-1.8C17.6,18.7,17.5,18.6,17.5,18.5z"/>
		<path class="st0" d="M14.5,25.6c1.1,0,2.3,0,3.4,0.1c0.1,0,0.3,0.1,0.3,0.2c0.2,0.2,0.6,0.1,0.8,0c0.1-0.1,0.3-0.1,0.4-0.1
			c0.4,0,0.9,0,1.3,0c0.4,0,0.5,0.1,0.5,0.5c0,0.7,0,1.4,0,2.1c0,0.6,0.1,1.1,0.1,1.7c0,0.6,0,1.1-0.1,1.6c0,0.1-0.1,0.2-0.2,0.2
			c-0.3,0.2-0.5,0.4-0.8,0.5c-0.1,0-0.1,0.1-0.2,0.1c-0.1,0-0.2,0.1-0.4,0.1c-0.2,0-0.5,0-0.7,0c-0.1,0-0.2-0.1-0.2-0.2
			c0-0.2,0-0.4-0.1-0.6c0,0,0-0.1,0-0.1c0.2-0.1,0.2-0.4,0.5-0.5c0,0,0,0,0,0c0.1-0.3,0.4-0.5,0.4-0.9c0-0.5-0.1-1-0.1-1.5
			c0-0.3,0-0.6,0-0.9c0-0.2,0-0.3,0-0.5c0-0.2-0.3-0.4-0.5-0.3c-0.4,0.1-0.4,0.1-0.4,0.5c0,0.9,0,1.9,0,2.8c0,0.3,0,0.5-0.1,0.8
			c0,0,0,0.1,0,0.1c-0.1,0.2-0.2,0.5-0.4,0.6c-0.1,0.2-0.4,0.3-0.6,0.4c-0.2,0.1-0.4,0-0.7,0c-0.3,0-0.5-0.3-0.7-0.4
			c-0.4-0.2-0.5-0.2-0.8,0.1c-0.3,0.4-0.6,0.4-1.1,0.3c-0.4-0.1-0.7-0.3-0.9-0.6c-0.3-0.3-0.3-0.6-0.3-0.9c0-0.3,0-0.7,0-1
			c0-0.3-0.1-0.5-0.4-0.6c-0.1,0-0.2-0.1-0.2-0.2c0-0.2-0.1-0.4,0.1-0.5c0.2-0.2,0.5-0.3,0.8-0.4c0.2,0,0.4-0.2,0.6-0.3
			c0.2-0.1,0.5-0.3,0.7-0.4c0.3-0.1,0.6-0.4,1-0.4c0.1,0,0.2-0.1,0.2-0.2c0,0-0.1-0.2-0.2-0.2c-0.3,0-0.5-0.1-0.8-0.1
			c-0.6,0-1.1,0-1.7,0c-0.2,0-0.2-0.1-0.2-0.3c0-0.2,0-0.4,0-0.5c0-0.3,0.1-0.4,0.4-0.4C13.7,25.6,14.1,25.6,14.5,25.6z M16.9,29.6
			c0-0.3,0-0.6,0-0.9c0-0.2-0.1-0.4-0.3-0.4c-0.2,0-0.4,0-0.7,0.1c-0.3,0.2-0.7,0.3-1,0.5c-0.1,0.1-0.2,0.2-0.3,0.3
			c0,0.2-0.1,0.4-0.1,0.6c0,0.2,0,0.5,0.1,0.7c0,0.1,0.1,0.2,0.3,0.2c0.2,0,0.2-0.1,0.2-0.3c0-0.2,0-0.4,0-0.5c0-0.4,0-0.4,0.4-0.4
			c0,0,0.1,0,0.1,0c0.3-0.1,0.5,0.1,0.5,0.4c0,0.1,0,0.2,0,0.4c0,0.1,0,0.2,0.1,0.3c0.1,0.2,0.3,0.3,0.4,0.2
			c0.2-0.1,0.2-0.2,0.2-0.4C16.9,30.1,16.9,29.9,16.9,29.6z"/>
		<path class="st0" d="M30,28.9c0,0.9,0,1.8,0,2.7c0,0.4-0.2,0.6-0.5,0.8c-0.3,0.2-0.7,0.4-1.1,0.6C28.3,33,28.1,33,28,33
			c-0.7,0-1.4,0.1-2.1,0.1c-0.6,0-1.1-0.1-1.7-0.1c-0.2,0-0.4-0.1-0.5-0.2c-0.1-0.1-0.3-0.1-0.5-0.2c0,0-0.1,0-0.1-0.1
			c-0.2-0.2-0.4-0.2-0.6-0.4c-0.2-0.2-0.4-0.5-0.4-0.8c0-0.5,0-1,0-1.5c0-0.7,0-1.4,0.1-2.1c0-0.1,0.1-0.2,0.2-0.2
			c0.2,0,0.3,0,0.5,0c0.7,0,1.5,0,2.2,0c0.5,0,0.5,0.1,0.5,0.6c0,0.2,0,0.4,0,0.6c0,0.1,0.1,0.2,0.2,0.2c0.1,0,0.2,0,0.2-0.1
			c0.1-0.1,0.2-0.3,0.2-0.5c0-0.1,0-0.3,0-0.4c0-0.1,0.1-0.2,0.2-0.2c0.3,0,0.6,0,0.8,0c0.1,0,0.1,0.1,0.2,0.1
			c0,0.1,0.1,0.2,0.1,0.3c0,0.4,0,0.8,0,1.2c0,0.2,0,0.3-0.1,0.5c-0.1,0.3-0.4,0.4-0.7,0.4c-0.1,0-0.1,0-0.2,0c-0.5,0-1,0-1.5,0
			c-0.4,0-0.5-0.2-0.5-0.5c0-0.2,0-0.4-0.1-0.6c0-0.1,0-0.3-0.2-0.2c-0.1,0-0.2,0.1-0.2,0.3c0,0.1,0,0.3,0,0.4c0,0.1,0,0.3,0,0.4
			c0,0.5,0,1,0,1.5c0,0.2,0.1,0.3,0.2,0.5c0.4,0.4,0.8,0.4,1.3,0.5c0.4,0.1,0.9,0,1.3-0.1c0.1,0,0.1,0,0.2,0c0.1,0,0.2-0.1,0.3-0.1
			c0.1-0.1,0.2-0.1,0.3-0.2c0.1-0.1,0.2-0.1,0.2-0.2c0-0.1,0.1-0.3,0.1-0.4c0-0.6,0.1-1.2,0-1.8c-0.1-0.8-0.1-1.5-0.1-2.3
			c0-0.2-0.2-0.3-0.4-0.3c-0.4,0-0.8,0-1.1-0.1c-0.3,0-0.7,0-1,0c-0.4,0-0.9,0-1.3,0c-0.2,0-0.4,0-0.5,0c-0.4,0-0.8,0-1.2,0
			c-0.1,0-0.2-0.1-0.2-0.2c0-0.1,0-0.3,0-0.4c0-0.1,0.1-0.2,0.2-0.2c0.2,0,0.4,0,0.6,0c0.5,0,0.9,0,1.4,0c0.4,0,0.9,0,1.3,0.1
			c0.1,0,0.2,0,0.3,0c1.2,0,2.3,0,3.5,0c0.2,0,0.4,0,0.5,0.1c0.1,0,0.2,0.2,0.2,0.3c0,0.6,0,1.2,0,1.8C30,28.2,30,28.6,30,28.9
			C30,28.9,30,28.9,30,28.9z"/>
		<path class="st0" d="M29.9,32.6c0,0.2,0,0.3,0,0.4c0,0.3-0.1,0.7-0.1,1c0,0.1,0.1,0.1,0.1,0.2c-0.1,0.3-0.3,0.4-0.5,0.6
			c-0.7,0.5-1.5,1-2.3,1.4c-0.6,0.3-1.3,0.5-2,0.8c-0.4,0.1-0.9,0.2-1.3,0.3c-0.3,0.1-0.6,0.1-0.9,0.1c-0.6,0-1.1,0.1-1.7,0.1
			c-0.8,0-1.5-0.1-2.3-0.3c-0.8-0.2-1.5-0.5-2.2-0.8c-0.6-0.3-1.2-0.7-1.7-1.2c-0.5-0.5-0.9-1-1.3-1.6c0,0,0,0,0,0
			c0-0.1-0.1-0.2-0.1-0.3c0.1,0,0.2,0,0.3,0c0.1,0,0.3,0,0.4,0c0.8,0,1.6,0.1,2.4,0.1c0.1,0,0.2,0.1,0.3,0.2c0.9,0.8,1.8,1.4,3,1.7
			c0.5,0.1,1,0.3,1.5,0.3c0.8,0.1,1.5,0,2.3,0c0.4,0,0.7-0.1,1.1-0.2c0.6-0.1,1.1-0.3,1.7-0.5c0.6-0.2,1.1-0.5,1.7-0.8
			c0.1-0.1,0.2-0.3,0.2-0.4c0,0,0-0.1,0-0.1c0-0.4,0-0.4,0.3-0.6c0.3-0.2,0.6-0.3,1-0.5C29.8,32.7,29.8,32.6,29.9,32.6z"/>
		<path class="st0" d="M21.7,15.6c0.4,0,0.8,0,1.1,0.1c0.2,0,0.5,0.2,0.7,0.3c0.6,0.5,1,1.1,1.3,1.8c0.2,0.4,0.3,0.8,0.4,1.2
			c0.1,0.5,0.1,1-0.1,1.5C25,20.8,24.8,21,24.4,21c-0.3,0-0.6,0-0.9,0c-0.1,0-0.1,0-0.2,0c-0.2,0-0.3,0-0.2,0.3
			c0.2,0.7,0.4,1.4,0.6,2.1c0.1,0.5,0.3,1,0.4,1.5c0,0.1,0,0.2-0.1,0.2c-0.5,0-1,0-1.5,0c-0.1,0-0.1,0-0.2,0c-0.1,0-0.2-0.1-0.2-0.2
			c-0.1-0.4-0.1-0.8-0.2-1.2c-0.1-0.3-0.1-0.7-0.2-1c-0.1-0.3-0.1-0.5-0.2-0.8c-0.1-0.4-0.1-0.7-0.2-1.1c-0.1-0.6-0.2-1.1-0.3-1.7
			c-0.1-0.3-0.1-0.7-0.2-1c-0.1-0.4-0.2-0.7-0.2-1.1c-0.1-0.3-0.1-0.6-0.2-1c0-0.3,0-0.3,0.3-0.3C21.1,15.6,21.4,15.6,21.7,15.6
			C21.7,15.6,21.7,15.6,21.7,15.6z M22.5,17.1c0,0-0.1,0-0.1,0c-0.2,0-0.2,0-0.2,0.2c0.1,0.3,0.1,0.6,0.2,0.9c0.2,0.6,0,0.5,0.7,0.5
			c0,0,0.1,0,0.1,0c0.1,0,0.3-0.1,0.3-0.2c0-0.2,0-0.4-0.1-0.6C23.2,17.3,23,17.1,22.5,17.1z"/>
		<path class="st0" d="M25.6,18.4c0.2,0,0.3-0.1,0.4-0.1c0.5,0,0.9,0,1.4,0c0.1,0,0.2,0,0.2,0.2c0.2,0.5,0.3,1.1,0.5,1.6
			c0.2,0.7,0.4,1.4,0.6,2c0.3,0.9,0.6,1.8,0.9,2.7c0.1,0.2,0.1,0.3-0.2,0.2c-0.5,0-0.9,0-1.4-0.1C28,25,28,25,27.9,24.9
			c-0.2-0.5-0.3-0.9-0.5-1.4c-0.3-0.8-0.6-1.7-0.9-2.5c-0.2-0.7-0.5-1.4-0.7-2C25.8,18.8,25.7,18.6,25.6,18.4z"/>
		<path class="st0" d="M24.6,15.4c0.3,0,0.6,0,0.9-0.1c0.3,0,0.6,0,0.9-0.1c0.2,0,0.3,0,0.3,0.2c0.2,0.5,0.3,1.1,0.5,1.6
			c0.1,0.2,0,0.2-0.2,0.2c-0.5,0-1,0.1-1.4,0.1c-0.3,0-0.3,0-0.4-0.3c-0.2-0.5-0.4-1.1-0.6-1.6C24.6,15.5,24.6,15.5,24.6,15.4z"/>
	</g>
	<g>
		<g>
			<path class="st0" d="M13.8,36.6c0-0.1-0.1-0.1-0.1-0.2c0-0.1,0-0.1,0.1-0.2c0.1,0.1,0.1,0.1,0.2,0.1c0,0,0,0.1,0,0.1
				c0,0,0,0.1,0.1,0.1c0.1,0,0.1,0.1,0.2,0.1c0.1,0,0.1,0,0.1-0.1c0,0,0-0.1,0-0.1c0,0,0-0.1,0-0.1c0,0-0.1-0.1-0.1-0.1
				c-0.1-0.1-0.1-0.1-0.1-0.2c0,0,0-0.1,0-0.2c0-0.1,0-0.1,0.1-0.2c0-0.1,0.1-0.1,0.1-0.1c0.1,0,0.1,0,0.2,0c0.1,0,0.1,0.1,0.2,0.1
				c0.1,0.1,0.2,0.2,0.2,0.2c0,0.1,0,0.2,0,0.3c-0.1-0.1-0.1-0.1-0.2-0.1c0,0,0-0.1,0-0.1c0,0,0-0.1-0.1-0.1c0,0-0.1-0.1-0.1-0.1
				c0,0-0.1,0-0.1,0.1c0,0,0,0.1,0,0.1c0,0,0,0.1,0,0.1c0,0,0.1,0.1,0.1,0.1c0.1,0.1,0.1,0.1,0.1,0.2c0,0,0.1,0.1,0.1,0.2
				c0,0.1,0,0.1,0,0.2c0,0-0.1,0.1-0.1,0.1c-0.1,0-0.1,0-0.2,0c-0.1,0-0.1-0.1-0.2-0.1C13.9,36.7,13.9,36.7,13.8,36.6z"/>
			<path class="st0" d="M15.8,36.6c0,0.1,0,0.1-0.1,0.1c-0.1-0.1-0.2-0.1-0.3-0.2c-0.2,0.3-0.3,0.5-0.5,0.8c-0.1,0-0.1-0.1-0.2-0.1
				c0.2-0.3,0.3-0.5,0.5-0.8c-0.1-0.1-0.2-0.1-0.3-0.2c0-0.1,0-0.1,0.1-0.1C15.4,36.4,15.5,36.5,15.8,36.6z"/>
			<path class="st0" d="M16.1,38c0-0.2,0-0.3-0.1-0.5c-0.1,0-0.1,0-0.1-0.1c-0.1,0.2-0.1,0.2-0.2,0.4c-0.1,0-0.1-0.1-0.2-0.1
				c0.2-0.4,0.3-0.6,0.5-1c0.1,0.1,0.2,0.1,0.4,0.2c0.1,0,0.1,0.1,0.2,0.1c0,0.1,0.1,0.1,0.1,0.2c0,0.1,0,0.1,0,0.2
				c0,0.1-0.1,0.1-0.1,0.2c-0.1,0-0.1,0-0.2,0c0,0.2,0,0.3,0.1,0.6C16.2,38.1,16.1,38.1,16.1,38z M15.9,37.3c0.1,0,0.1,0.1,0.2,0.1
				c0.1,0,0.1,0,0.2,0c0,0,0.1,0,0.1-0.1c0-0.1,0-0.1,0-0.1c0,0-0.1-0.1-0.1-0.1c-0.1,0-0.1-0.1-0.2-0.1C16,37.1,16,37.2,15.9,37.3z
				"/>
			<path class="st0" d="M17.1,37.4c0,0.1-0.1,0.2-0.1,0.3c0.2,0.1,0.2,0.1,0.4,0.2c0,0.1,0,0.1-0.1,0.1C17.1,38,17,38,16.9,37.9
				c-0.1,0.1-0.1,0.2-0.1,0.3c0.2,0.1,0.3,0.1,0.5,0.2c0,0.1,0,0.1-0.1,0.1c-0.3-0.1-0.4-0.2-0.6-0.3c0.2-0.4,0.3-0.6,0.4-1
				c0.2,0.1,0.4,0.2,0.6,0.3c0,0.1,0,0.1-0.1,0.1C17.3,37.6,17.2,37.5,17.1,37.4z"/>
			<path class="st0" d="M17.9,37.8c0,0.1-0.1,0.2-0.1,0.3c0.2,0.1,0.2,0.1,0.4,0.1c0,0.1,0,0.1,0,0.1c-0.2-0.1-0.2-0.1-0.4-0.1
				c0,0.1-0.1,0.2-0.1,0.3c0.2,0.1,0.3,0.1,0.5,0.2c0,0.1,0,0.1,0,0.1c-0.3-0.1-0.4-0.1-0.7-0.2c0.1-0.4,0.2-0.6,0.4-1.1
				c0.2,0.1,0.4,0.1,0.6,0.2c0,0.1,0,0.1,0,0.1C18.1,37.9,18.1,37.8,17.9,37.8z"/>
			<path class="st0" d="M19.3,38c0,0.1,0,0.1,0,0.1c-0.1,0-0.2,0-0.3-0.1c-0.1,0.4-0.1,0.6-0.2,0.9c-0.1,0-0.1,0-0.2-0.1
				c0.1-0.4,0.1-0.6,0.2-0.9c-0.1,0-0.2-0.1-0.3-0.1c0-0.1,0-0.1,0-0.1C18.8,37.9,19,38,19.3,38z"/>
			<path class="st0" d="M20.6,38.3c0,0.1,0,0.1,0,0.2c-0.2,0-0.3,0-0.5-0.1c0,0.1,0,0.2,0,0.3c0.2,0,0.2,0,0.4,0.1
				c0,0.1,0,0.1,0,0.1c-0.2,0-0.2,0-0.4-0.1c0,0.2,0,0.3-0.1,0.5c-0.1,0-0.1,0-0.2,0c0.1-0.4,0.1-0.7,0.2-1.1
				C20.2,38.2,20.3,38.2,20.6,38.3z"/>
			<path class="st0" d="M20.9,39.4c-0.1-0.1-0.2-0.1-0.2-0.2c0-0.1-0.1-0.2-0.1-0.3c0-0.1,0-0.2,0.1-0.3c0.1-0.1,0.1-0.1,0.2-0.2
				c0.1,0,0.2-0.1,0.3-0.1c0.1,0,0.2,0,0.3,0.1c0.1,0.1,0.2,0.1,0.2,0.2c0.1,0.1,0.1,0.2,0.1,0.3c0,0.1,0,0.2-0.1,0.3
				c-0.1,0.1-0.1,0.2-0.2,0.2c-0.1,0-0.2,0.1-0.3,0.1C21.1,39.5,21,39.4,20.9,39.4z M21.4,39.3c0.1,0,0.1-0.1,0.2-0.1
				c0-0.1,0.1-0.1,0.1-0.2c0-0.1,0-0.2,0-0.2c0-0.1-0.1-0.1-0.1-0.1c-0.1,0-0.1-0.1-0.2-0.1c-0.1,0-0.1,0-0.2,0
				c-0.1,0-0.1,0.1-0.2,0.1c0,0.1-0.1,0.1-0.1,0.2c0,0.1,0,0.2,0,0.2c0,0.1,0.1,0.1,0.1,0.2c0.1,0,0.1,0.1,0.2,0.1
				C21.3,39.3,21.4,39.3,21.4,39.3z"/>
			<path class="st0" d="M22.3,39.4c-0.1,0-0.2-0.1-0.2-0.2C22,39.1,22,39,22,38.9c0-0.1,0-0.2,0.1-0.3c0.1-0.1,0.1-0.2,0.2-0.2
				c0.1-0.1,0.2-0.1,0.3-0.1c0.1,0,0.2,0,0.3,0.1c0.1,0,0.2,0.1,0.2,0.2c0.1,0.1,0.1,0.2,0.1,0.3c0,0.1,0,0.2-0.1,0.3
				c0,0.1-0.1,0.2-0.2,0.2c-0.1,0.1-0.2,0.1-0.3,0.1C22.5,39.5,22.4,39.5,22.3,39.4z M22.8,39.2c0.1,0,0.1-0.1,0.1-0.2
				c0-0.1,0-0.1,0-0.2c0-0.1,0-0.2-0.1-0.2c0-0.1-0.1-0.1-0.2-0.1c-0.1,0-0.1,0-0.2,0c-0.1,0-0.1,0-0.2,0.1c-0.1,0-0.1,0.1-0.1,0.1
				c0,0.1,0,0.1,0,0.2c0,0.1,0,0.2,0.1,0.2c0,0.1,0.1,0.1,0.2,0.1c0.1,0,0.1,0,0.2,0C22.7,39.3,22.8,39.3,22.8,39.2z"/>
			<path class="st0" d="M24,38.2c0.1,0,0.2,0.1,0.2,0.2c0.1,0.1,0.1,0.2,0.1,0.3c0,0.1,0,0.2,0,0.3c0,0.1-0.1,0.2-0.2,0.2
				c-0.1,0.1-0.2,0.1-0.3,0.1c-0.2,0-0.2,0-0.4,0.1c0-0.4-0.1-0.7-0.1-1.1c0.1,0,0.2,0,0.4,0C23.8,38.2,23.9,38.2,24,38.2z M24.1,39
				c0.1-0.1,0.1-0.2,0.1-0.3c0-0.1-0.1-0.2-0.2-0.3c-0.1-0.1-0.2-0.1-0.3-0.1c-0.1,0-0.1,0-0.2,0c0,0.3,0.1,0.5,0.1,0.8
				c0.1,0,0.1,0,0.2,0C24,39.2,24.1,39.1,24.1,39z"/>
			<path class="st0" d="M25.6,37.8c0,0.1,0,0.1,0,0.1c-0.1,0-0.2,0.1-0.3,0.1c0.1,0.4,0.1,0.6,0.2,0.9c-0.1,0-0.1,0-0.2,0.1
				c-0.1-0.4-0.1-0.6-0.2-0.9c-0.1,0-0.2,0-0.3,0.1c0-0.1,0-0.1,0-0.1C25.2,37.9,25.3,37.9,25.6,37.8z"/>
			<path class="st0" d="M26.7,38.6c-0.2-0.1-0.3-0.2-0.4-0.3c-0.1,0-0.1,0-0.1,0.1c0.1,0.2,0.1,0.3,0.1,0.4c-0.1,0-0.1,0-0.2,0.1
				c-0.1-0.4-0.2-0.6-0.3-1.1c0.2-0.1,0.2-0.1,0.4-0.1c0.1,0,0.2,0,0.2,0c0.1,0,0.1,0,0.2,0.1c0,0,0.1,0.1,0.1,0.1
				c0,0.1,0,0.1,0,0.2c0,0.1-0.1,0.1-0.2,0.2c0.2,0.1,0.3,0.2,0.4,0.3C26.9,38.5,26.8,38.6,26.7,38.6z M26.1,38.2
				c0.1,0,0.1,0,0.2-0.1c0.1,0,0.1-0.1,0.1-0.1c0,0,0-0.1,0-0.2c0-0.1-0.1-0.1-0.1-0.1c0,0-0.1,0-0.2,0c-0.1,0-0.1,0-0.2,0.1
				C26.1,38,26.1,38,26.1,38.2z"/>
			<path class="st0" d="M27,37.3c0.1,0.3,0.2,0.4,0.3,0.7c0,0.1,0.1,0.1,0.1,0.1c0.1,0,0.1,0,0.2,0c0.1,0,0.1-0.1,0.2-0.2
				c0-0.1,0-0.1,0-0.2c-0.1-0.3-0.2-0.4-0.3-0.6c0.1,0,0.1-0.1,0.2-0.1c0.1,0.3,0.2,0.4,0.3,0.6c0,0.1,0.1,0.2,0,0.2
				c0,0.1,0,0.1-0.1,0.2c-0.1,0.1-0.1,0.1-0.2,0.2c-0.1,0-0.2,0.1-0.2,0.1c-0.1,0-0.2,0-0.2-0.1c-0.1,0-0.1-0.1-0.1-0.2
				c-0.1-0.3-0.2-0.4-0.3-0.7C26.9,37.3,26.9,37.3,27,37.3z"/>
			<path class="st0" d="M28,37.1c0-0.1,0-0.2,0.1-0.3c0.1-0.1,0.1-0.2,0.2-0.2c0.1-0.1,0.2-0.1,0.3-0.1c0.1,0,0.2,0,0.3,0.1
				c-0.1,0.1-0.1,0.1-0.2,0.1c-0.1,0-0.1,0-0.2,0c-0.1,0-0.1,0-0.2,0.1c-0.1,0-0.1,0.1-0.2,0.2c0,0.1-0.1,0.1-0.1,0.2
				c0,0.1,0,0.1,0.1,0.2c0,0.1,0.1,0.1,0.1,0.2c0.1,0,0.1,0.1,0.2,0.1c0.1,0,0.1,0,0.2-0.1c0.1,0,0.1-0.1,0.2-0.1
				c0-0.1,0.1-0.1,0.1-0.2c0.1-0.1,0.1-0.1,0.2-0.1c0,0.1,0,0.2-0.1,0.3c-0.1,0.1-0.2,0.2-0.3,0.3c-0.1,0.1-0.2,0.1-0.3,0.1
				c-0.1,0-0.2,0-0.3-0.1c-0.1,0-0.2-0.1-0.2-0.2C28,37.3,28,37.2,28,37.1z"/>
			<path class="st0" d="M30.2,36.6c-0.3,0-0.4-0.1-0.7-0.1c0.1,0.2,0.2,0.2,0.3,0.4c-0.1,0.1-0.1,0.1-0.2,0.1
				c-0.2-0.4-0.4-0.6-0.6-0.9c0.1,0,0.1-0.1,0.2-0.1c0.1,0.2,0.2,0.3,0.3,0.4c0-0.3,0.1-0.4,0.1-0.7c0.1-0.1,0.1-0.1,0.2-0.2
				c0,0.3-0.1,0.5-0.1,0.8c0.3,0.1,0.5,0.1,0.8,0.1C30.3,36.5,30.2,36.6,30.2,36.6z"/>
		</g>
	</g>
</g>
</svg>
